<svg xmlns="http://www.w3.org/2000/svg" xmlns:xlink="http://www.w3.org/1999/xlink" width="133" height="130" viewBox="0 0 133 130"><defs><filter id="a" x="0" y="0" width="133" height="130" filterUnits="userSpaceOnUse"><feOffset dy="10" input="SourceAlpha"/><feGaussianBlur stdDeviation="10" result="b"/><feFlood flood-color="#f5e3f9" flood-opacity="0.11"/><feComposite operator="in" in2="b"/><feComposite in="SourceGraphic"/></filter></defs><g transform="translate(-1260 -1995)"><g transform="matrix(1, 0, 0, 1, 1260, 1995)" filter="url(#a)"><rect width="73" height="70" rx="15" transform="translate(30 20)" fill="#ffe014" opacity="0.1"/></g><g transform="translate(413 -29)"><ellipse cx="12.715" cy="12.341" rx="12.715" ry="12.341" transform="translate(900.547 2066.921)" fill="none" stroke="#feb301" stroke-miterlimit="10" stroke-width="2"/><circle cx="18.262" cy="18.262" r="18.262" transform="translate(895 2061)" fill="none" stroke="#feb301" stroke-miterlimit="10" stroke-width="2"/><line x2="4.294" y2="3.756" transform="translate(899.288 2067.505)" fill="none" stroke="#feb301" stroke-miterlimit="10" stroke-width="2"/><line x2="3.135" y2="4.935" transform="translate(904.158 2063.427)" fill="none" stroke="#feb301" stroke-miterlimit="10" stroke-width="2"/><line y1="4.954" x2="3.035" transform="translate(920.347 2064.059)" fill="none" stroke="#feb301" stroke-miterlimit="10" stroke-width="2"/><line y1="3.151" x2="4.737" transform="translate(923.366 2068.62)" fill="none" stroke="#feb301" stroke-miterlimit="10" stroke-width="2"/><line y1="3.756" x2="4.294" transform="translate(899.288 2087.097)" fill="none" stroke="#feb301" stroke-miterlimit="10" stroke-width="2"/><line y1="4.935" x2="3.135" transform="translate(904.158 2089.995)" fill="none" stroke="#feb301" stroke-miterlimit="10" stroke-width="2"/><line x2="3.035" y2="4.954" transform="translate(920.347 2089.345)" fill="none" stroke="#feb301" stroke-miterlimit="10" stroke-width="2"/><line x2="4.737" y2="3.151" transform="translate(923.366 2086.587)" fill="none" stroke="#feb301" stroke-miterlimit="10" stroke-width="2"/></g></g></svg>