<svg xmlns="http://www.w3.org/2000/svg" xmlns:xlink="http://www.w3.org/1999/xlink" width="133" height="130" viewBox="0 0 133 130"><defs><filter id="a" x="0" y="0" width="133" height="130" filterUnits="userSpaceOnUse"><feOffset dy="10" input="SourceAlpha"/><feGaussianBlur stdDeviation="10" result="b"/><feFlood flood-color="#f5e3f9" flood-opacity="0.11"/><feComposite operator="in" in2="b"/><feComposite in="SourceGraphic"/></filter></defs><g transform="translate(-783 -1995)"><g transform="matrix(1, 0, 0, 1, 783, 1995)" filter="url(#a)"><rect width="73" height="70" rx="15" transform="translate(30 20)" fill="#57e5ac" opacity="0.1"/></g><g transform="translate(13.5 15)"><rect width="45" height="31" rx="5" transform="translate(815 2019)" fill="none" stroke="#5ad6a6" stroke-miterlimit="10" stroke-width="2"/><line x2="45.151" transform="translate(815 2042.352)" fill="none" stroke="#5ad6a6" stroke-miterlimit="10" stroke-width="2"/><line y2="5.283" transform="translate(839.715 2049.908)" fill="none" stroke="#5ad6a6" stroke-miterlimit="10" stroke-width="2"/><line x1="10.597" transform="translate(831.798 2055.192)" fill="none" stroke="#5ad6a6" stroke-linecap="round" stroke-miterlimit="10" stroke-width="2"/><line y2="5.283" transform="translate(834.439 2049.908)" fill="none" stroke="#5ad6a6" stroke-miterlimit="10" stroke-width="2"/><path d="M635.084,520.563l4.515-7.741a.348.348,0,0,1,.562-.056l3.45,3.909a.346.346,0,0,0,.556-.047l1.939-3.119a.346.346,0,0,1,.569-.03l3.345,4.266a.349.349,0,0,0,.56-.015l5.71-8.177" transform="translate(192.106 1517.542)" fill="none" stroke="#5ad6a6" stroke-linecap="round" stroke-miterlimit="10" stroke-width="2"/></g></g></svg>