<svg xmlns="http://www.w3.org/2000/svg" width="1935.475" height="1301.284" viewBox="0 0 1935.475 1301.284"><path d="M1280,382.054c237.377,0,412.457,42.927,535.349,0,104.017-36.334,121.509,5.457,165.742,0,31.353-3.868,101.284-82.042,112.2,0,9.615,72.253,0,327.2,0,408.557,0,115.1.36,336.587,0,441.052-.278,80.715,9.892,48.591-49.036,112.247C1877.881,1523.636,1669.515,1646,1280,1646c-463.036,0-868.646-176.544-1093.729-414.337-43.8-46.274-14.85-74.887-14.192-130.812,1.11-94.339,0-220.942,0-310.24,0-67.934,14.592-121.715,14.192-173.067-.449-57.665-12.529-112.135,52.767-179.58,64.2-66.314,192.1,14.351,274.529-35.711,83.927-50.969,179.64,51.3,275.459-20.2,47.288-35.285,95.833.094,146.617,0C1037.743,381.865,1149.2,382.054,1280,382.054Z" transform="translate(-162.09 -344.716)" fill="#fff"/></svg>